<svg t="1735031056124" class="icon" viewBox="0 0 1024 1024" version="1.1" xmlns="http://www.w3.org/2000/svg" p-id="13360" width="100" height="100"><path d="M732 64c49.706 0 90 40.294 90 90v146h68c38.273 0 69.372 30.716 69.99 68.842L960 370v500c0 49.209-39.493 89.193-88.512 89.988L870 960H154c-49.209 0-89.193-39.493-89.988-88.512L64 870V370c0-38.273 30.716-69.372 68.842-69.99L134 300h68V154c0-49.209 39.493-89.193 88.512-89.988L292 64z m168 660H124v146c0 16.403 13.164 29.731 29.504 29.996L154 900h716c16.403 0 29.731-13.164 29.996-29.504L900 870V724zM202 360h-68c-5.43 0-9.848 4.327-9.996 9.72L124 370v294h78V360z m688 0h-68v304h78V370c0-5.43-4.327-9.848-9.72-9.996L890 360zM732.496 124H292c-16.569 0-30 13.431-30 30v510h500V154c0-16.403-13.164-29.731-29.504-30z m-100.785 73.29c11.715 11.715 11.715 30.71 0 42.426L571.425 300H642c16.569 0 30 13.431 30 30 0 16.569-13.431 30-30 30H542v60h100c16.569 0 30 13.431 30 30 0 16.569-13.431 30-30 30H542v110c0 16.569-13.431 30-30 30-16.569 0-30-13.431-30-30V480H382c-16.569 0-30-13.431-30-30 0-16.569 13.431-30 30-30h100v-60H382c-16.569 0-30-13.431-30-30 0-16.569 13.431-30 30-30h70.574l-60.285-60.284c-11.598-11.599-11.714-30.332-0.348-42.073l0.348-0.354c11.716-11.715 30.711-11.715 42.427 0L512 274.574l77.284-77.285c11.716-11.715 30.71-11.715 42.427 0z"  p-id="13361"></path></svg>